# xmcd
#
# Track frame offsets:
#	151
#	22206
#	41589
#	60540
#	81635
#	103712
#	125317
#	148862
#	169373
#	190400
#	211019
#	236494
#	256939
#	279614
#
# Disc length: 3985 seconds
#
# Revision: 196611
# Processed by: cddbd v1.5.2PL0 Copyright (c) Steve Scherf et al.
# Submitted via: EZCDAudioConverter 8.0.2.1
#
DISCID=d20f8f0e
DTITLE=群星 - 滚石红人堂Ⅰ CD2 - 一人一首成名曲③
DYEAR=2003
DGENRE=
TTITLE0=黄品源 - 你怎么舍得我难过
TTITLE1=李宗盛 - 鬼迷心窍
TTITLE2=李度 - 舍不得把你眼睛睁开
TTITLE3=周华健 - 你喜欢的会有几个
TTITLE4=万芳 - 猜心
TTITLE5=许景淳 - 路长情更长
TTITLE6=娃娃 - 大雨
TTITLE7=小虫 - 一往情深
TTITLE8=梁静茹 - 对不起我爱你
TTITLE9=任贤齐 - 很受伤
TTITLE10=黑豹乐队 - 无地自容
TTITLE11=杨乃文 - 星星堆满天
TTITLE12=羽泉 - 最美
TTITLE13=莫文蔚 - 冷雨
EXTD=
EXTT0=
EXTT1=
EXTT2=
EXTT3=
EXTT4=
EXTT5=
EXTT6=
EXTT7=
EXTT8=
EXTT9=
EXTT10=
EXTT11=
EXTT12=
EXTT13=
PLAYORDER=
